<svg xmlns="http://www.w3.org/2000/svg" width="96" height="96" viewBox="0 0 96 96">
    <g fill="none" fill-rule="evenodd">
        <path d="M0 0H96V96H0z"/>
        <path fill="#292929" d="M80.323 7.258c2.353-1.83 5.757-1.664 7.92.5 2.343 2.343 2.343 6.141 0 8.485L56.485 48l31.758 31.757c2.343 2.344 2.343 6.142 0 8.486-2.163 2.163-5.567 2.329-7.92.499l-.566-.5L48 56.486 16.243 88.243l-.566.499c-2.353 1.83-5.757 1.664-7.92-.5-2.343-2.343-2.343-6.141 0-8.485L39.515 48 7.757 16.243c-2.343-2.344-2.343-6.142 0-8.486 2.163-2.163 5.567-2.329 7.92-.499l.566.5L48 39.514 79.757 7.757z"/>
    </g>
</svg>
