<svg xmlns="http://www.w3.org/2000/svg" width="16" height="16" viewBox="0 0 16 16">
    <g fill="none" fill-rule="evenodd">
        <path d="M0 0H16V16H0z"/>
        <path fill="#292929" d="M2.613 1.21l.094.083L8 6.585l5.293-5.292.094-.083c.392-.305.96-.278 1.32.083.39.39.39 1.024 0 1.414L9.415 8l5.292 5.293c.39.39.39 1.024 0 1.414-.36.36-.928.388-1.32.083l-.094-.083L8 9.415l-5.293 5.292-.094.083c-.392.305-.96.278-1.32-.083-.39-.39-.39-1.024 0-1.414L6.585 8 1.293 2.707c-.39-.39-.39-1.024 0-1.414.36-.36.928-.388 1.32-.083z"/>
    </g>
</svg>
