<svg xmlns="http://www.w3.org/2000/svg" xmlns:xlink="http://www.w3.org/1999/xlink" width="24" height="24" viewBox="0 0 24 24">
    <defs>
        <path id="s5mlfbvsoa" d="M15 2c.552 0 1 .448 1 1s-.448 1-1 1H4c-.552 0-1 .448-1 1v14c0 .552.448 1 1 1h14c.552 0 1-.448 1-1v-7c0-.552.448-1 1-1s1 .448 1 1v7c0 1.657-1.343 3-3 3H4c-1.657 0-3-1.343-3-3V5c0-1.657 1.343-3 3-3zm6.293.293c.39-.39 1.024-.39 1.414 0 .39.39.39 1.024 0 1.414l-11 11c-.39.39-1.024.39-1.414 0l-3-3c-.39-.39-.39-1.024 0-1.414.39-.39 1.024-.39 1.414 0L11 12.586z"/>
    </defs>
    <g fill="none" fill-rule="evenodd">
        <mask id="0wz2z8m0db" fill="#fff">
            <use xlink:href="#s5mlfbvsoa"/>
        </mask>
        <use fill="#000" fill-rule="nonzero" xlink:href="#s5mlfbvsoa"/>
        <g fill="#272649" mask="url(#0wz2z8m0db)">
            <path d="M0 0H24V24H0z"/>
        </g>
    </g>
</svg>
