<svg xmlns="http://www.w3.org/2000/svg" width="17" height="17" viewBox="0 0 17 17">
    <g fill="none" fill-rule="evenodd">
        <path d="M0 0H17V17H0z"/>
        <path fill="#292929" d="M8.5.531c2.152 0 3.896 1.744 3.896 3.896S10.652 8.323 8.5 8.323 4.604 6.579 4.604 4.427 6.348.531 8.5.531zm.089 1.948c-1.125 0-2.037.912-2.037 2.037 0 1.124.912 2.036 2.037 2.036 1.124 0 2.036-.912 2.036-2.036 0-1.125-.912-2.037-2.036-2.037zM8.5 8.677c-4.108 0-7.438 2.99-7.438 6.679 0 .614.555 1.113 1.24 1.113h12.396c.695 0 1.254-.513 1.24-1.137l-.007-.241c-.17-3.59-3.443-6.414-7.431-6.414zm.284 2.06c2.44.109 4.484 1.623 5.153 3.679l.053.177H3.01l.062-.2c.702-2.12 2.867-3.663 5.429-3.663l.283.006z"/>
    </g>
</svg>
