<svg xmlns="http://www.w3.org/2000/svg" width="18" height="18" viewBox="0 0 96 96">
    <g fill="none" fill-rule="evenodd">
        <path d="M0 0H96V96H0z"/>
        <path fill="#292929" d="M45.94 6.552c2.338 2.08 2.713 5.549.986 8.064l-.476.608L22.672 42h64.185C90.25 42 93 44.686 93 48c0 3.077-2.371 5.613-5.426 5.96l-.717.04H22.672L46.45 80.776c2.078 2.34 2.044 5.829.034 8.125l-.544.547c-2.338 2.08-5.823 2.046-8.116.034l-.547-.544L4.55 52.081c-1.894-2.133-2.052-5.258-.474-7.557l.474-.605L37.277 7.062c2.252-2.536 6.13-2.764 8.663-.51z"/>
    </g>
</svg>
