<svg xmlns="http://www.w3.org/2000/svg" xmlns:xlink="http://www.w3.org/1999/xlink" width="64" height="61" viewBox="0 0 64 61">
    <defs>
        <path id="4yhgiuqh0a" d="M0 0.045L57.799 0.045 57.799 59.64 0 59.64z"/>
        <path id="50yv5jpk4c" d="M0.047 0.001L35.91 0.001 35.91 59.653 0.047 59.653z"/>
        <path id="rqi8cqjb7e" d="M0 59.746L63.745 59.746 63.745 0.001 0 0.001z"/>
    </defs>
    <g fill="none" fill-rule="evenodd">
        <path fill="#FFF" d="M63 58.39L56 59 56 18.846 62.419 17z"/>
        <path fill="#FFF" d="M62 17.305L55.499 20 31 1 36.953 1.478z"/>
        <path fill="#FFF" d="M56 59L2 59 2 18.897 29 1 56 18.897z"/>
        <g transform="translate(0 .106)">
            <mask id="4s7y8ht72b" fill="#fff">
                <use xlink:href="#4yhgiuqh0a"/>
            </mask>
            <path fill="#494949" d="M50.646 58.156H3.498V20.36c0-.469.034-.954.009-1.425L5.97 17.31l6.463-4.268 7.862-5.194 6.758-4.464c.62-.41 1.245-.814 1.867-1.222l1.184.782 6.463 4.269 7.862 5.193 6.758 4.464 2.243 1.481c.289.191.575.405.873.589v38.316c0 .298-.009.6-.011.901h-3.646zm7.146-39.335c-.015-.385-.349-.542-.634-.73l-5.166-3.413-8.398-5.548-8.25-5.449L30.631.568c-.074-.05-.148-.098-.222-.146-.438-.29-.987-.374-1.504-.377-.512-.003-1.073.07-1.508.358l-3.352 2.214-7.708 5.092-8.672 5.728L1.4 17.575c-.374.247-.77.478-1.13.747-.346.257-.26.639-.26 1.016V58.887c0 .255.311.446.507.527.387.16.816.225 1.232.225h52.083c.707 0 1.414.003 2.121 0h.09c.1 0 .204-.003.31-.01.318-.018.643-.067.925-.2.05-.022.109-.05.168-.085.174-.096.346-.23.346-.436V20.239c0-.472.017-.947 0-1.418z" mask="url(#4s7y8ht72b)"/>
        </g>
        <g transform="translate(27.835)">
            <mask id="x99yvnq0jd" fill="#fff">
                <use xlink:href="#50yv5jpk4c"/>
            </mask>
            <path fill="#494949" d="M35.908 17.412c-.014-.572-.39-1.016-.862-1.316-.515-.329-1.042-.642-1.562-.962l-7.733-4.761-9.503-5.852L10.22.809c-.123-.076-.245-.153-.37-.227C9.12.147 8.464.17 7.678.15l-5.2-.122L1.3.001C.632-.015-.184.443.109 1.218c.297.788 1.226 1.28 2.04 1.3l6.359.148.26.006 1.885 1.161 6.013 3.702 7.318 4.506 6.282 3.869c.768.472 1.529.962 2.3 1.431v38.644c0 .285-.005.571-.007.857l-4.041.245-.77.047c-.353.021-.742.059-1.007.328-.224.228-.296.591-.183.889.278.737 1.243 1.348 2.04 1.3l5.295-.322.77-.046c.54-.033 1.245-.222 1.245-.895V17.923c0-.17.004-.341 0-.511" mask="url(#x99yvnq0jd)"/>
        </g>
        <path fill="#494949" d="M59.908 16.89l-4.825 1.48c-.234.07-.468.143-.702.214-.214.066.153.197.156.198.314.118.697.171 1.025.216.443.062.892.111 1.34.119.265.004.554.025.811-.054l4.825-1.48.702-.215c.214-.065-.153-.196-.156-.197-.315-.118-.697-.171-1.025-.217-.443-.061-.892-.111-1.34-.118-.265-.005-.554-.025-.811.054"/>
        <mask id="oboybvpoyf" fill="#fff">
            <use xlink:href="#rqi8cqjb7e"/>
        </mask>
        <path fill="#FFC856" d="M19.596 45.449L38.205 45.449 38.205 26.928 19.596 26.928z" mask="url(#oboybvpoyf)"/>
        <path fill="#494949" d="M31.972 44.73H20.619V27.647H37.182V44.73h-5.21zm7.256.512V26.846c0-.518-.493-.636-.928-.636H19.692c-.386 0-1.119.335-1.119.8V45.53c0 .518.493.636.929.636h18.36c.083.009.166.009.248 0 .236 0 .531-.1.76-.266.203-.13.358-.307.358-.534.005-.045.004-.086 0-.125z" mask="url(#oboybvpoyf)"/>
    </g>
</svg>
