<svg xmlns="http://www.w3.org/2000/svg" xmlns:xlink="http://www.w3.org/1999/xlink" width="24" height="24" viewBox="0 0 24 24">
    <defs>
        <path id="02q7ss0oja" d="M5 4c-.552 0-1 .448-1 1v14c0 .552.448 1 1 1h14c.552 0 1-.448 1-1V5c0-.552-.448-1-1-1H5zm0-2h14c1.657 0 3 1.343 3 3v14c0 1.657-1.343 3-3 3H5c-1.657 0-3-1.343-3-3V5c0-1.657 1.343-3 3-3z"/>
    </defs>
    <g fill="none" fill-rule="evenodd">
        <mask id="64h0gjvndb" fill="#fff">
            <use xlink:href="#02q7ss0oja"/>
        </mask>
        <use fill="#000" fill-rule="nonzero" xlink:href="#02q7ss0oja"/>
        <g fill="#272649" mask="url(#64h0gjvndb)">
            <path d="M0 0H24V24H0z"/>
        </g>
    </g>
</svg>
