<svg xmlns="http://www.w3.org/2000/svg" xmlns:xlink="http://www.w3.org/1999/xlink" width="96" height="96" viewBox="0 0 96 96">
    <defs>
        <path id="503ec64yxa" d="M0 0.002L80 0.002 80 84.6 0 84.6z"/>
    </defs>
    <g fill="none" fill-rule="evenodd" transform="translate(8 4)">
        <mask id="vj75g4esvb" fill="#fff">
            <use xlink:href="#503ec64yxa"/>
        </mask>
        <path fill="#FFC856" d="M4 81c-.208 0-.4-.188-.4-.4V32.228c0-1.064.904-2.856 1.756-3.488L38.928 3.876c.168-.124.556-.276 1.072-.276s.904.152 1.072.276L74.644 28.74c.852.632 1.756 2.424 1.756 3.488V80.6c0 .212-.192.4-.4.4H4z" mask="url(#vj75g4esvb)"/>
        <path fill="#292929" d="M40 0c-1.168 0-2.332.328-3.216.984L3.216 25.844C1.448 27.156 0 30.028 0 32.228V80.6c0 2.2 1.8 4 4 4h72c2.2 0 4-1.8 4-4V32.228c0-2.2-1.448-5.072-3.216-6.384L43.216.984C42.332.328 41.168 0 40 0m0 7.56l32.38 23.984c.156.192.36.592.42.832v45.028H7.2V32.376c.06-.24.264-.64.42-.832L40 7.56" mask="url(#vj75g4esvb)"/>
        <path fill="#FFF" d="M28.316 62.367c-.208 0-.4-.188-.4-.4V38.603c0-.212.192-.404.4-.404h23.368c.208 0 .4.192.4.404v23.364c0 .212-.192.4-.4.4H28.316z" mask="url(#vj75g4esvb)"/>
        <path fill="#292929" d="M51.684 34.602H28.316c-2.2 0-4 1.8-4 4V61.97c0 2.2 1.8 4 4 4h23.368c2.2 0 4-1.8 4-4V38.602c0-2.2-1.8-4-4-4zM31.52 58.77h16.964V41.802H31.52V58.77z" mask="url(#vj75g4esvb)"/>
    </g>
</svg>
