<svg xmlns="http://www.w3.org/2000/svg" xmlns:xlink="http://www.w3.org/1999/xlink" width="42" height="42" viewBox="0 0 42 42">
    <defs>
        <path id="kn0sldguca" d="M0 0.102L14.435 0.102 14.435 16.293 0 16.293z"/>
        <path id="w3wg6nbrhc" d="M0.007 0.149L14.443 0.149 14.443 16.34 0.007 16.34z"/>
    </defs>
    <g fill="none" fill-rule="evenodd">
        <circle cx="21" cy="21" r="21" fill="#386EDB"/>
        <g>
            <g transform="translate(9 9) translate(0 7.82)">
                <mask id="k6hei1ez9b" fill="#fff">
                    <use xlink:href="#kn0sldguca"/>
                </mask>
                <path fill="#FFF" d="M11.636 12.26l-2.662 2.662c-1.936 1.936-5.216 1.806-7.313-.29-2.096-2.096-2.226-5.377-.29-7.312l5.848-5.848C8.97-.281 11.883-.36 13.992 1.286c.502.39.59 1.114.2 1.615-.393.504-1.115.59-1.616.2-1.195-.932-2.798-.933-3.73-.001L3 8.948c-1.038 1.038-.908 2.857.29 4.056 1.199 1.198 3.018 1.329 4.057.29l2.662-2.662c.45-.45 1.178-.45 1.628 0 .45.45.45 1.179 0 1.628" mask="url(#k6hei1ez9b)"/>
            </g>
            <g transform="translate(9 9) translate(8.678 .028)">
                <mask id="f8v1hrp0ad" fill="#fff">
                    <use xlink:href="#w3wg6nbrhc"/>
                </mask>
                <path fill="#FFF" d="M13.072 9.123L7.224 14.97c-1.752 1.752-4.664 1.832-6.774.185-.5-.39-.59-1.114-.199-1.615.392-.501 1.115-.59 1.616-.2 1.194.933 2.797.933 3.73.001l5.847-5.847c1.038-1.039.908-2.858-.29-4.056-1.2-1.199-3.019-1.33-4.057-.29l-3.111 3.11c-.45.45-1.178.45-1.628 0-.45-.45-.45-1.178 0-1.628L5.469 1.52c1.936-1.936 5.216-1.806 7.312.29 2.096 2.097 2.227 5.377.29 7.313" mask="url(#f8v1hrp0ad)"/>
            </g>
        </g>
    </g>
</svg>
