<svg xmlns="http://www.w3.org/2000/svg" width="96" height="96" viewBox="0 0 96 96">
    <g fill="none" fill-rule="evenodd">
        <rect width="86" height="86" x="5" y="5" fill="#FFC856" rx="2"/>
        <path fill="#29292C" d="M85.333 0C91.224 0 96 4.776 96 10.667v74.666C96 91.224 91.224 96 85.333 96H10.667C4.776 96 0 91.224 0 85.333V10.667C0 4.776 4.776 0 10.667 0h74.666zm0 10.667H10.667v74.666h74.666V10.667z"/>
        <path fill="#29292C" d="M65.649 33.477c2.13-2.035 5.506-1.958 7.54.172 1.879 1.966 1.958 4.994.284 7.048l-.455.492-27.91 26.667c-1.988 1.9-5.057 1.956-7.109.234l-.49-.468-14.757-15.946c-2-2.162-1.87-5.537.292-7.537 1.996-1.847 5.025-1.877 7.052-.17l.485.462L41.653 56.4 65.65 33.477z"/>
    </g>
</svg>
