<svg xmlns="http://www.w3.org/2000/svg" width="42" height="42" viewBox="0 0 42 42">
    <g fill="none" fill-rule="evenodd">
        <circle cx="21" cy="21" r="21" fill="#FEDC00"/>
        <g fill="#FFF" fill-rule="nonzero">
            <path d="M11.529 11.725L10.744 9.495 9.959 11.725z" transform="translate(8 10)"/>
            <path d="M13.627 0C6.1 0 0 4.81 0 10.744c0 3.837 2.551 7.207 6.387 9.104-.208.72-1.341 4.63-1.386 4.938 0 0-.027.23.122.319.101.05.219.058.325.02.43-.061 4.979-3.252 5.765-3.8.8.11 1.606.165 2.414.163 7.526 0 13.626-4.81 13.626-10.744S21.153 0 13.627 0zM6.883 9.076c-.017 1.52.013 3.119-.012 4.615-.008.478-.283.62-.655.757-.042.015-.087.018-.131.01-.426-.084-.765-.236-.776-.766-.03-1.495.01-3.096-.012-4.616-.36-.014-.874.015-1.208 0-.464-.03-.786-.325-.766-.764.02-.439.254-.754.774-.762 1.23-.019 2.752-.019 3.98 0 .525.008.758.325.774.762.016.438-.302.734-.764.764-.33.015-.843-.014-1.204 0zm6.603 5.3c-.157.072-.327.109-.5.109-.328 0-.578-.131-.655-.347l-.393-1.02H9.545l-.393 1.02c-.076.213-.326.347-.655.347-.172 0-.343-.037-.5-.109-.217-.1-.425-.375-.187-1.116l1.886-4.95c.162-.446.575-.752 1.048-.776.473.027.885.332 1.048.777l1.88 4.947c.239.743.03 1.024-.186 1.118zm3.973 0h-2.522c-.407.008-.743-.314-.753-.72V8.32c.017-.43.371-.77.802-.77.431 0 .785.34.803.77v4.619h1.67c.268-.016.523.117.661.347.14.23.14.517 0 .747-.138.23-.393.363-.66.347v-.004zm6.158-.592c-.041.317-.271.577-.581.658-.31.08-.637-.035-.828-.291l-1.844-2.441-.273.272v1.715c0 .435-.352.787-.786.787-.434 0-.786-.352-.786-.787V8.325c0-.434.352-.786.786-.786.434 0 .786.352.786.786v1.685l2.194-2.193c.116-.115.273-.178.436-.176.407.011.74.326.773.732.014.176-.048.35-.171.478l-1.795 1.79 1.935 2.565c.125.166.18.376.15.582l.004-.004z" transform="translate(8 10)"/>
        </g>
    </g>
</svg>
